<svg width="173" height="23" viewBox="0 0 173 23" fill="none" xmlns="http://www.w3.org/2000/svg">
<path d="M18.43 1.642V22H13.471V13.619H5.757V22H0.798V1.642H5.757V9.617H13.471V1.642H18.43ZM21.0239 13.88C21.0239 12.2173 21.3332 10.7577 21.9519 9.501C22.5899 8.24433 23.4502 7.27767 24.5329 6.601C25.6156 5.92433 26.8239 5.586 28.1579 5.586C29.2986 5.586 30.2942 5.818 31.1449 6.282C32.0149 6.746 32.6819 7.355 33.1459 8.109V5.818H38.1049V22H33.1459V19.709C32.6626 20.463 31.9859 21.072 31.1159 21.536C30.2652 22 29.2696 22.232 28.1289 22.232C26.8142 22.232 25.6156 21.8937 24.5329 21.217C23.4502 20.521 22.5899 19.5447 21.9519 18.288C21.3332 17.012 21.0239 15.5427 21.0239 13.88ZM33.1459 13.909C33.1459 12.6717 32.7979 11.6953 32.1019 10.98C31.4252 10.2647 30.5939 9.907 29.6079 9.907C28.6219 9.907 27.7809 10.2647 27.0849 10.98C26.4082 11.676 26.0699 12.6427 26.0699 13.88C26.0699 15.1173 26.4082 16.1033 27.0849 16.838C27.7809 17.5533 28.6219 17.911 29.6079 17.911C30.5939 17.911 31.4252 17.5533 32.1019 16.838C32.7979 16.1227 33.1459 15.1463 33.1459 13.909ZM51.5525 5.644C53.4472 5.644 54.9552 6.26267 56.0765 7.5C57.2172 8.718 57.7875 10.4 57.7875 12.546V22H52.8575V13.213C52.8575 12.1303 52.5772 11.2893 52.0165 10.69C51.4559 10.0907 50.7019 9.791 49.7545 9.791C48.8072 9.791 48.0532 10.0907 47.4925 10.69C46.9319 11.2893 46.6515 12.1303 46.6515 13.213V22H41.6925V5.818H46.6515V7.964C47.1542 7.24867 47.8309 6.688 48.6815 6.282C49.5322 5.85667 50.4892 5.644 51.5525 5.644ZM60.2475 13.88C60.2475 12.2173 60.5569 10.7577 61.1755 9.501C61.8135 8.24433 62.6739 7.27767 63.7565 6.601C64.8392 5.92433 66.0475 5.586 67.3815 5.586C68.4449 5.586 69.4115 5.80833 70.2815 6.253C71.1709 6.69767 71.8669 7.297 72.3695 8.051V0.54H77.3285V22H72.3695V19.68C71.9055 20.4533 71.2385 21.072 70.3685 21.536C69.5179 22 68.5222 22.232 67.3815 22.232C66.0475 22.232 64.8392 21.8937 63.7565 21.217C62.6739 20.521 61.8135 19.5447 61.1755 18.288C60.5569 17.012 60.2475 15.5427 60.2475 13.88ZM72.3695 13.909C72.3695 12.6717 72.0215 11.6953 71.3255 10.98C70.6489 10.2647 69.8175 9.907 68.8315 9.907C67.8455 9.907 67.0045 10.2647 66.3085 10.98C65.6319 11.676 65.2935 12.6427 65.2935 13.88C65.2935 15.1173 65.6319 16.1033 66.3085 16.838C67.0045 17.5533 67.8455 17.911 68.8315 17.911C69.8175 17.911 70.6489 17.5533 71.3255 16.838C72.0215 16.1227 72.3695 15.1463 72.3695 13.909Z" fill="#0F241D"/>
<path d="M95.5612 1.642V5.615H90.1672V22H85.2082V5.615H79.8142V1.642H95.5612ZM97.064 13.88C97.064 12.2173 97.3733 10.7577 97.992 9.501C98.63 8.24433 99.4903 7.27767 100.573 6.601C101.656 5.92433 102.864 5.586 104.198 5.586C105.339 5.586 106.334 5.818 107.185 6.282C108.055 6.746 108.722 7.355 109.186 8.109V5.818H114.145V22H109.186V19.709C108.703 20.463 108.026 21.072 107.156 21.536C106.305 22 105.31 22.232 104.169 22.232C102.854 22.232 101.656 21.8937 100.573 21.217C99.4903 20.521 98.63 19.5447 97.992 18.288C97.3733 17.012 97.064 15.5427 97.064 13.88ZM109.186 13.909C109.186 12.6717 108.838 11.6953 108.142 10.98C107.465 10.2647 106.634 9.907 105.648 9.907C104.662 9.907 103.821 10.2647 103.125 10.98C102.448 11.676 102.11 12.6427 102.11 13.88C102.11 15.1173 102.448 16.1033 103.125 16.838C103.821 17.5533 104.662 17.911 105.648 17.911C106.634 17.911 107.465 17.5533 108.142 16.838C108.838 16.1227 109.186 15.1463 109.186 13.909ZM122.692 0.54V22H117.733V0.54H122.692ZM136.174 22L131.244 15.214V22H126.285V0.54H131.244V12.401L136.145 5.818H142.264L135.536 13.938L142.322 22H136.174ZM159.466 13.648C159.466 14.112 159.437 14.5953 159.379 15.098H148.156C148.233 16.1033 148.552 16.8767 149.113 17.418C149.693 17.94 150.399 18.201 151.23 18.201C152.467 18.201 153.328 17.679 153.811 16.635H159.089C158.818 17.6983 158.325 18.6553 157.61 19.506C156.914 20.3567 156.034 21.0237 154.971 21.507C153.908 21.9903 152.719 22.232 151.404 22.232C149.819 22.232 148.407 21.8937 147.17 21.217C145.933 20.5403 144.966 19.5737 144.27 18.317C143.574 17.0603 143.226 15.591 143.226 13.909C143.226 12.227 143.564 10.7577 144.241 9.501C144.937 8.24433 145.904 7.27767 147.141 6.601C148.378 5.92433 149.799 5.586 151.404 5.586C152.97 5.586 154.362 5.91467 155.58 6.572C156.798 7.22933 157.745 8.167 158.422 9.385C159.118 10.603 159.466 12.024 159.466 13.648ZM154.391 12.343C154.391 11.4923 154.101 10.8157 153.521 10.313C152.941 9.81033 152.216 9.559 151.346 9.559C150.515 9.559 149.809 9.80067 149.229 10.284C148.668 10.7673 148.32 11.4537 148.185 12.343H154.391ZM167.041 8.515C167.621 7.62567 168.346 6.92967 169.216 6.427C170.086 5.905 171.053 5.644 172.116 5.644V10.893H170.753C169.516 10.893 168.588 11.1637 167.969 11.705C167.351 12.227 167.041 13.155 167.041 14.489V22H162.082V5.818H167.041V8.515Z" fill="#22C55E"/>
</svg>
